<?xml version="1.0" encoding="utf-8"?>
<!-- Generator: Adobe Illustrator 17.0.0, SVG Export Plug-In . SVG Version: 6.00 Build 0)  -->
<!DOCTYPE svg PUBLIC "-//W3C//DTD SVG 1.1//EN" "http://www.w3.org/Graphics/SVG/1.1/DTD/svg11.dtd">
<svg version="1.1" id="Layer_1" xmlns="http://www.w3.org/2000/svg" xmlns:xlink="http://www.w3.org/1999/xlink" x="0px" y="0px"
	 width="186.356px" height="239.105px" viewBox="0 0 186.356 239.105" enable-background="new 0 0 186.356 239.105"
	 xml:space="preserve">
<g>
	
		<image display="none" overflow="visible" enable-background="new    " width="275" height="183" xlink:href="2B9DFC255EF0BD39.jpg"  transform="matrix(1.8073 0 0 1.8073 -158.0152 -47.2435)">
	</image>
	<path fill="#CD2032" stroke="#030303" stroke-miterlimit="10" d="M83.708,166.014c0,0-14.91,9.94-37.049,9.036v-4.489
		c0,0-5.422-0.029-11.747-1.836v-2.711h-9.488l3.163-2.259h-4.97v-3.163l-16.265-2.711l30.724-7.681v-2.711
		c0,0-12.651,0.452-30.724-18.525l7.681-4.066c0,0-5.422-4.066-10.844-18.976h3.163c0,0-9.94-23.495-5.874-39.308
		c0,0,4.518,15.814,13.103,18.073c0,0,9.488,11.747,14.458,10.844l3.163-5.422c0,0,19.88,24.398,26.205,22.139
		c0,0,5.422-6.777,1.355-14.006c0,0-7.681-18.073-10.844-19.88l1.807-2.711c0,0-3.237-26.657-8.621-29.368l23.079,13.555
		l2.711-21.687h4.518l2.259-9.94l1.957-0.376l0.302-2.937h1.957l-0.226-8.057l2.711-0.376l1.355-4.97l2.259-1.355l1.505-7.907
		l2.335,8.66h1.657l-0.904,4.894l2.937,0.15l-0.98,6.853l3.99,0.376l-0.452,6.551l3.389,2.711v4.442l5.648-0.376l0.376,4.744v11.22
		v2.109l18.223-9.94c0,0-3.013,14.76-1.505,18.675c0,0-5.422,9.036-3.615,11.445l3.013-1.807c0,0-14.76,28.916-6.627,33.736
		c0,0,5.422,3.916,28.013-20.784l1.205,5.12l16.567-9.94v4.216l11.145-7.229v4.518l13.253-9.036c0,0-20.482,27.411-19.278,30.422
		l4.82,0.602c0,0-16.567,11.145-11.747,15.664l6.627,5.422c0,0-29.218,15.362-27.711,21.085l34.036,16.867l-9.338-1.505v3.615
		l-7.229-2.711l1.205,3.313l-10.542-3.013l0.904,5.724l-13.856-2.409l0.302,7.229c0,0-37.651,2.711-41.869-9.94l7.831,71.085h4.518
		l-1.205,3.615h-7.531C94.1,238.607,91.087,169.629,83.708,166.014z"/>
</g>
<path d="M58.15,120.897c0,0-66.611-19.412-27.406,24.741l0.289,7.856l23.158,0.594c0,0,22.564-25.533-14.251-16.329l12.173,10.094
	l-17.22,0.297l-0.297-2.969c0,0-20.189-29.096,18.408-21.673L58.15,120.897z"/>
<path d="M118.435,86.756c0,0-131.794,49.214,1.668,79.243l10.844-15.014c0,0-111.774-8.341-13.346-52.551L118.435,86.756z"/>
<g>
	<polygon points="116.406,147.989 117.743,111.857 132.901,110.373 144.047,159.373 137.805,158.878 129.78,127.201 
		123.539,128.191 119.081,151.453 	"/>
	<polygon fill="#CD2032" stroke="#030303" stroke-miterlimit="10" points="123.985,114.827 129.78,113.837 130.672,121.262 
		123.985,121.756 	"/>
</g>
</svg>
